<svg xmlns="http://www.w3.org/2000/svg" viewBox="0 0 15761.57 3249.42"><path d="M1642.11,3249c-46.78,2.64-92.36-7.72-138.45-12.25-123.1-12.11-241.45-44.59-358-84.13-207.4-70.37-396.13-174.35-564.42-315.19-85.52-71.57-165.34-149-235.57-235.3-73.28-90-138.41-185.75-184.48-293.61C129.36,2234,96.76,2159.9,71.42,2082.83A1912.25,1912.25,0,0,1,8,1833.46c-2.86-15.42-2.27-31.06-3.14-46.57C1.43,1725.72-1,1664.46.4,1603.18,3.09,1484.63,15,1367,39,1250.79c3-14.66,9-28.34,13.68-42.45,21.75-65.74,43.36-131.53,66-197,10.89-31.47,27.63-60.45,43.3-89.71C209.44,833,263.13,748.22,324.26,668.25,387.12,586,458,511.36,534.72,441.92c89.47-81,186.87-150.87,291.15-211.33,70.17-40.7,141.9-78.83,217.51-108,85.62-33,174.07-57.8,263.82-77.5A1936.09,1936.09,0,0,1,1537.75,8.45c38.9-3.74,78-5.26,117.06-7.18,55.43-2.74,110.75-.7,166,2.81a1905.21,1905.21,0,0,1,293.61,42c68.6,15.27,137.26,31,203.27,55.37,50.62,18.66,99.84,41.13,149.5,62.34,61.2,26.14,120.94,55.14,177.06,91.26,9.24,5.94,12.57,12.46,12.77,23.47,1.61,87.21,4,174.41,6.07,261.61q2,84.09,4.09,168.16c.21,8.3,1.28,16.57,1.52,24.86.18,6.3,3.31,8.44,9.19,8.4,10.38-.08,20.77.17,31.16.26q127.76,1,255.51,2.11c60.59.53,121.17,1.35,181.75,1.5,9.7,0,15,3.53,19.51,11.79,15.83,28.81,30,58.91,50.14,84.84,21.76,27.94,33.15,60.52,46.62,92.16,51.68,121.28,93.27,246,122.47,374.6,15.1,66.51,27.1,133.64,37.07,201.09,3,20.51.83,41.47.3,62.23-.15,5.88-.85,11.75-.83,17.62.29,74.49-7,148.58-11.38,222.84-4.94,84.06-27.4,164.23-49.83,244.58-10.14,36.33-19.32,72.94-29.66,109.22-5.91,20.7-16.42,39.61-25.72,58.94-39.33,81.76-79.78,163-127.5,240.25-34.58,56-71.84,110.24-113.6,161.24-1.53,1.87-3,4.24-5,5.2-30,14-49.11,39.54-65.4,66.38-15.66,25.78-39.29,42.28-61,61.31-15.12,13.28-29.54,27.26-42.25,42.85-17,20.82-39.93,34.13-61.32,49.28-97.25,68.87-196.23,135.06-301.22,191.81-89.72,48.49-182.21,91-278.78,123.73-37.87,12.82-77.88,19.31-116.88,28.81-59.55,14.5-119.31,28.19-180.15,35.89-35.32,4.46-70.91,7.47-106.48,9.2C1777.71,3244.6,1709.9,3246.51,1642.11,3249ZM1457.55,1491.21c0,56.46-.93,112.93.42,169.36.63,26.54-5.19,50.67-16.41,74.06-3.14,6.54-6.78,12.85-10.36,19.17-15.36,27.12-38.61,44.88-67.36,55.64-21.56,8.08-44.32,10.87-67.1,12.75-9.87.81-20.09,2.4-29.68-2.15-13.14-6.23-26.69-11.76-39.3-18.93-46.34-26.36-71.28-67.28-73.82-119.77-3.07-63.59-3.12-127.34-4.19-191-1-59.89-1.69-119.78-2.41-179.68-.29-23.76-12.26-37.2-36-41.41-10.53-1.87-20.68.62-31,.55-16.85-.11-23.09,6.11-24.26,23.23-.31,4.48-.18,9-.13,13.5,1.29,101.8,0,203.6,1.85,305.41,2.07,113.55-.16,227.15,2.12,340.73,2.1,104.55-.1,209.14,2,313.71,2.4,117.71-.41,235.47,2.1,353.2,1.32,62,.8,124,.47,186,0,10.13,3.48,14.59,12.63,17.93,44.22,16.16,88.13,33.18,132.32,49.43,47.11,17.33,94.07,35.36,143.21,46.18,61.85,13.63,124.16,25,187.06,32.74,33.64,4.16,67.14,10.7,100.89,12.51,39,2.1,78.18-1.53,117.18-4.3q79.7-5.66,159-16.1c43.93-5.74,88.25-10.81,130.92-22.24a1863.19,1863.19,0,0,0,385.12-150.82c35.86-18.82,71-38.53,103.09-63.82,30.15-23.77,61.26-46.49,93.94-66.79,12.33-7.66,23.14-15.57,31.85-28.22,18.75-27.21,43.59-49.06,70.44-68.42,7.84-5.65,15.89-10.85,22.64-18.07,40.75-43.6,79.15-89.28,111.84-139.09,42.17-64.26,93.47-123,120.78-196.47,11.48-30.86,29.73-58.7,40.82-89.73,14.92-41.77,26.6-84.5,38-127.35,31.68-119.46,47.77-240.87,46.49-364.46-.72-69-6.15-137.72-18.81-205.47-18.45-98.8-34.71-198.41-79.18-290.2-11.35-23.42-19.33-48.18-28.35-72.5-3.32-8.93-8-12.14-17.52-11.85-53.95,1.65-107.92,2.81-161.89,3.94-41.88.88-83.76,1.48-125.64,2.21-13.84.25-14.16.41-14,13.9.66,64.74.46,129.49.93,194.24,1.81,248.29-.3,496.61,3,744.9a44.92,44.92,0,0,1-2.13,15.31c-18.16,53.7-42.65,104.45-71.61,153-5.52,9.26-18.55,10.51-24.84,19.85-1,1.43-5,1.46-4.9,4.32.29,8.59-6.47,10.44-12.11,13.64-9.62,5.48-19.1,11.21-28.64,16.82-19.67,11.58-38.09,25.76-59.7,33.38-20.85,7.35-42.63,12-64.39,16.24-62.8,12.34-124.42,9.72-185.19-11.84a630.94,630.94,0,0,1-88.23-39c-7.06-3.8-12.44-3.34-19.11.64q-26.77,15.93-54.25,30.67c-10.33,5.54-19.68,13.27-31.38,15.93-59.83,13.6-120,19.59-181.32,10.81-77.14-11.05-142.6-43-191.92-104.73-1.73-2.16-3.34-5.28-6.28-4.94-12.56,1.46-13.28-7.86-15.79-16.16-1.28-4.25-.81-11.15-7.42-10.89-9.17.37-11.56-5.71-14.52-12.14-18.48-40.08-30.17-82.53-43.4-124.43a30.41,30.41,0,0,1-1.27-8.17q-2-76.8-3.86-153.62c-1-41.53-.2-83.07-1.7-124.62-2.49-68.84-3.29-137.73-4.5-206.61-1.09-62-1.62-123.94-2.76-185.9-.18-10.25,1-21.16-4.24-30.5-9.76-17.39-24.92-25-45-23.3-25.64,2.19-43.16,20.54-43.16,45.9ZM752,2598.61c0-23.86,0-47.35,0-70.84-.38-217.47,1.52-434.95-1.17-652.43-1.51-121.88-1.59-243.78-2.21-365.67-.36-69.61.2-139.24-1.21-208.83-.43-21.31,3.14-41.16,9.49-61,1.16-3.62,2.22-7.28,3.33-10.92,25.58-83.8,72.71-152.08,146.82-199.94A309.15,309.15,0,0,1,1051,979.85c51.53-4.34,101.44,1.74,150.6,16.88,26.91,8.28,52.43,19.75,77.83,31.69,13,6.12,27.41,7.06,40,.3,29.39-15.74,59.57-29.25,91.31-39.56,41.63-13.53,84.46-16.26,127.36-12.16,68.19,6.51,130.75,32,191.63,62,3.09,1.52,7.28,3,7.08,6.84-.55,11,7.74,14.63,14.84,19.31a149.21,149.21,0,0,1,21.61,17.79c35.61,34.51,56.52,77.42,70.53,124.12,4.25,14.18,10,28,10.4,43.26.79,32.87.52,65.75,1.55,98.64,2.27,72.31,3.06,144.67,4.42,217q2.13,113.17,4.19,226.35c.86,48.12,1.55,96.23,2.39,144.35.29,17.15,19.41,40.22,35.44,43,31.75,5.49,63.62-21.41,63.62-53.76q0-191.19-.11-382.36a49.39,49.39,0,0,1,5.69-23.87c11.46-21.6,25.24-41.59,44-57.34,41.44-34.7,88-48.15,141.22-32.26,31.68,9.46,57,28.53,77.7,53.25,14.24,17,28.79,34.42,29.25,59.19,1.2,65,3.92,130.07,5.79,195.1,1.79,62.27,4.33,124.54,5.25,186.84.15,9.58-.63,19.7,3.18,28.69,7.59,17.88,30.23,29.46,47.79,25.38,24.11-5.61,41.9-25.36,41.79-46.15-.68-133-.83-265.94-1.89-398.91-1.29-160.34-.59-320.7-.76-481,0-15.17,0-15.19-15.49-15.19-90.75,0-181.49-.2-272.23.24-11.08.06-15-4.06-14.93-14.14,0-4.15-.26-8.3-.38-12.46-.91-31.48-.43-63-1.68-94.48-2-49.8-2.09-99.68-2.91-149.53-.28-17-.17-17,17.18-17,90.4,0,180.8-.13,271.19.18,9.85,0,13.13-2.79,13.1-12.9q-.48-148.07,0-296.12c0-9.59-2.82-14.5-12.49-14.4s-17.09-4.13-24.27-10.11c-17.42-14.52-37.19-25.23-57.89-34.29C2219,362.52,2171.89,350,2124.27,339c-69.86-16.15-140.68-26.74-211.55-37.25-49.08-7.27-98.13-12-147.82-10.64-35.3,1-70.67.9-106,0-53.84-1.33-107,3.09-160.14,12.13-150.31,25.6-297.58,61.31-436.87,125.33C991,461.12,924.3,500.12,865.78,552.08c-9.6,8.51-19.36,15.33-31.84,18.29-4,1-8.18,2.71-10,6.8-5.62,12.36-16.74,17.92-28,23.46-4.58,2.25-9.64,3.81-12.21,9.06-12.76,26.13-33.47,45.49-54.77,64.42C690,708.72,649.21,740.62,616.06,782.27c-74.13,93.14-139.32,191.47-190.66,298.79-25.5,53.31-52.89,106-64.31,165-2.57,13.23-6.61,26.17-9.95,39.25-10.19,39.9-23.14,79.35-29.9,119.82-9.35,55.94-10.59,112.91-12.76,169.62-1.06,27.66-.4,55.36-1.65,83.06-1.15,25.56-1.53,51.35.57,76.82,3.32,40.36,11.78,80,19.69,119.76,34.33,172.17,98.22,332.23,195.62,478.57,63.58,95.52,138.29,181.75,220.07,262C744.43,2596.58,745.77,2598.86,752,2598.61Z" fill="#fff"/><text transform="translate(3915.53 1396.03) scale(0.75 1)" font-size="1132.01" fill="#fff" font-family="TimesNewRomanPS-BoldMT, Times New Roman" font-weight="700">P<tspan x="691.48" y="0" letter-spacing="-0.02em">T</tspan><tspan x="1426.07" y="0" xml:space="preserve"> MAD</tspan><tspan x="4412.52" y="0" letter-spacing="-0.06em">A</tspan><tspan x="5167.56" y="0" letter-spacing="-0.02em"> </tspan><tspan x="5430.11" y="0">WIKRI</tspan><tspan x="9141.21" y="0" letter-spacing="-0.02em"> </tspan><tspan x="9403.76" y="0">TUNGGA</tspan><tspan x="14372.33" y="0" letter-spacing="-0.06em">L</tspan></text><path d="M4194,2356.27l159.7-479.93h51.64v664.59H4356.1V1970l5.13,29.26-149.79,449.3h-34.88l-149.78-440.16,5.13-38.4v570.89h-49.25V1876.34h51.64Z" fill="#fff"/><path d="M4761.5,2547.79q-74.22,0-114.9-55.53t-40.7-157v-53.48q0-106,39.16-164.09t110.28-58q67,0,103.79,57.14t36.76,161.34v54.4H4639.41v-59.42h210.66v-4.57q0-70.39-24.79-109t-69.94-38.62q-49.59,0-76.6,40.68t-27,115.18v60.34q0,71.3,28.73,110.38t81.05,39.08q24.61,0,48.73-13.71t42.92-38.85l33.51,43q-26,33.84-58.82,52.34T4761.5,2547.79Z" fill="#fff"/><path d="M5058.84,2123.16v-56.67h160v56.67Zm119.69,420.06q-43.78,0-63.44-32.45t-19.66-93.25V1928.45h49.24v490q0,30.17,10.26,46.85t30.44,16.68h33.51v61.25Z" fill="#fff"/><path d="M5522.72,2547.79q-62.25,0-96.44-38.39t-34.2-108.33q0-67.2,31.46-104t88.23-36.79h118l4.79,61.25H5512.11q-34.2,0-52.83,20.79t-18.64,58.74q0,40.23,23.43,62.39t66.17,22.17q45.83,0,71.13-12.34t25.3-34.74l7.19,62.16a94.84,94.84,0,0,1-27.19,25.6,131.81,131.81,0,0,1-37.79,16A184.37,184.37,0,0,1,5522.72,2547.79Zm103.95-6.86V2240.18q0-57.6-23.08-89.36t-65.49-31.77a118.57,118.57,0,0,0-49.24,11,138.11,138.11,0,0,0-43.43,31.08l-35.91-32.91a142,142,0,0,1,53.18-50.51q33-18,73.35-18,66.69,0,103.28,46.17t36.59,130.26v304.87Z" fill="#fff"/><path d="M5925.72,1876.34v539.81q0,30.17,11.12,46.85t30.95,16.69h32.82v61.24h-41q-39.33,0-61.21-32.91t-21.89-92.78v-538.9Z" fill="#fff"/><path d="M6570,2547.79q-62.25,0-96.44-38.39t-34.2-108.33q0-67.2,31.46-104t88.23-36.79h118l4.79,61.25H6559.38q-34.19,0-52.83,20.79t-18.64,58.74q0,40.23,23.43,62.39t66.17,22.17q45.83,0,71.13-12.34t25.31-34.74l7.18,62.16a94.71,94.71,0,0,1-27.19,25.6,131.69,131.69,0,0,1-37.79,16A184.31,184.31,0,0,1,6570,2547.79Zm104-6.86V2240.18q0-57.6-23.09-89.36t-65.49-31.77a118.61,118.61,0,0,0-49.24,11,138.22,138.22,0,0,0-43.43,31.08l-35.91-32.91a142.12,142.12,0,0,1,53.18-50.51q33-18,73.35-18,66.69,0,103.28,46.17t36.59,130.26v304.87Z" fill="#fff"/><path d="M6923.75,2540.93V2066.49H6973v474.44Zm236,0v-287.5q0-63.07-24.79-97.81T7065,2120.88q-43.78,0-67.89,30.85T6973,2239.26l-7.18-91.41q19.83-48.92,51.81-68.57a131.74,131.74,0,0,1,70.28-19.65q57.78,0,89.42,50.51T7209,2253v287.95Z" fill="#fff"/><path d="M7522,2547.79q-58.47,0-90.62-50.28t-32.14-141.24V2253q0-92.33,31.29-142.84t88.06-50.51q38.3,0,69.76,19.2t50.61,67.65l-7.18,91.41a161.61,161.61,0,0,0-10.6-58.28q-10.6-27.65-30.78-45.48t-48.9-17.82q-44.46,0-68.74,35.88t-24.28,101.24v102.84q0,64,24.28,99.42t68.74,35.42q28.72,0,48.9-18.28T7621.2,2426a167.68,167.68,0,0,0,10.6-58.74l4.79,99.19q-14,45.71-43.95,63.53T7522,2547.79Zm109.78-6.86V1876.34H7681v664.59Z" fill="#fff"/><path d="M8171.07,2540.93V1876.34h49.25v664.59ZM8207,2283.14v-61.25h159q44.11,0,71-39.08t26.84-102.61q0-64.45-26.84-103.53t-71-39.08H8207v-61.25h156.63q45.14,0,78.65,25.37t52.15,71.08q18.63,45.7,18.64,107.41,0,60.8-18.64,106.5t-52.15,71.07q-33.52,25.38-78.65,25.37Z" fill="#fff"/><path d="M8744,1876.34v539.81q0,30.17,11.12,46.85t31,16.69h32.83v61.24h-41q-39.33,0-61.21-32.91t-21.89-92.78v-538.9Z" fill="#fff"/><path d="M9102.25,2547.79q-62.24,0-96.43-38.39t-34.2-108.33q0-67.2,31.46-104t88.23-36.79h118l4.79,61.25H9091.65q-34.2,0-52.83,20.79t-18.64,58.74q0,40.23,23.42,62.39t66.18,22.17q45.81,0,71.13-12.34t25.3-34.74l7.18,62.16a94.8,94.8,0,0,1-27.18,25.6,131.81,131.81,0,0,1-37.79,16A184.39,184.39,0,0,1,9102.25,2547.79Zm104-6.86V2240.18q0-57.6-23.08-89.36t-65.49-31.77a118.57,118.57,0,0,0-49.24,11A138.11,138.11,0,0,0,9025,2161.1l-35.91-32.91a142,142,0,0,1,53.18-50.51q33-18,73.35-18,66.69,0,103.27,46.17t36.6,130.26v304.87Z" fill="#fff"/><path d="M9578.1,2547.79a198.93,198.93,0,0,1-81.9-17.14,191.92,191.92,0,0,1-65.83-47.76l28.38-46.17q29.07,26.06,60.19,40.45t59.16,14.4q51,0,78.83-23.31t27.87-65.82q0-35.66-16.76-50.74t-43.94-19.65q-27.2-4.56-58-7.77a370,370,0,0,1-42.75-7.09,111.7,111.7,0,0,1-38.64-16.68q-17.44-11.88-27.87-35t-10.43-62.39q0-68.57,37.1-106t104.82-37.48a183.85,183.85,0,0,1,69.25,13.71,201.28,201.28,0,0,1,61,38.4L9690.27,2157a214.15,214.15,0,0,0-52.49-30.4q-27.2-10.73-51.47-10.74-44.8,0-69.42,22.4t-24.62,63.07q0,31.09,15.21,44.57t39.84,17.6q24.63,4.11,53.69,6.4a390.21,390.21,0,0,1,45,6.4,116,116,0,0,1,41.89,17.36q19.15,12.81,30.78,38.63t11.63,70.16q0,69-39.84,107.18T9578.1,2547.79Z" fill="#fff"/><path d="M9886.38,2123.16v-56.67h160.05v56.67Zm119.69,420.06q-43.77,0-63.43-32.45T9923,2417.52V1928.45h49.25v490q0,30.17,10.26,46.85t30.43,16.68h33.52v61.25Z" fill="#fff"/><path d="M10247,1942.16v-65.82h49.24v65.82Zm0,598.77V2066.49h49.24v474.44Z" fill="#fff"/><path d="M10650.34,2547.79q-76.95,0-115.25-51.42t-38.3-154.72v-78.16q0-102.39,38.3-153.12t115.25-50.74q43.77,0,75.74,19t52.84,56.91l-36.59,43.42q-18.14-29.25-40.87-43.65a91.77,91.77,0,0,0-50.1-14.4q-52.67,0-79,35.42T10546,2263.49v78.16q0,72.67,26.34,108.78t79,36.11q29.07,0,52.84-13.71t42.91-41.6l31.81,42.06q-20.86,37.49-52.84,56T10650.34,2547.79Z" fill="#fff"/><path d="M11299.39,1876.34v664.59h-49.25V1876.34Z" fill="#fff"/><path d="M11520.46,2540.93V2066.49h49.25v474.44Zm236,0v-287.5q0-63.07-24.8-97.81t-69.93-34.74q-43.78,0-67.88,30.85t-24.11,87.53l-7.18-91.41q19.83-48.92,51.81-68.57a131.71,131.71,0,0,1,70.27-19.65q57.79,0,89.43,50.51t31.63,142.84v287.95Z" fill="#fff"/><path d="M12118.74,2547.79q-58.48,0-90.63-50.28T11996,2356.27V2253q0-92.33,31.29-142.84t88.06-50.51q38.3,0,69.76,19.2t50.61,67.65l-7.18,91.41a161.61,161.61,0,0,0-10.6-58.28q-10.6-27.65-30.78-45.48t-48.9-17.82q-44.46,0-68.74,35.88t-24.28,101.24v102.84q0,64,24.28,99.42t68.74,35.42q28.72,0,48.9-18.28t30.78-46.85a167.68,167.68,0,0,0,10.6-58.74l4.79,99.19q-14,45.71-43.94,63.53T12118.74,2547.79Zm109.77-6.86V1876.34h49.25v664.59Z" fill="#fff"/><path d="M12527.56,2066.49V2354.9q0,62.63,24.28,97.13t68.74,34.51q44.11,0,68.22-31.54t24.11-89.13l4.79,99.19q-11.64,32-40.7,57.36t-75.92,25.37q-58.81,0-90.79-50.51t-32-142.38V2066.49Zm185.35,474.44V2066.49h48.9v474.44Z" fill="#fff"/><path d="M13084.46,2547.79a198.94,198.94,0,0,1-81.91-17.14,191.92,191.92,0,0,1-65.83-47.76l28.39-46.17q29.05,26.06,60.18,40.45t59.17,14.4q50.94,0,78.82-23.31t27.87-65.82q0-35.66-16.76-50.74t-43.94-19.65q-27.18-4.56-58-7.77a369.25,369.25,0,0,1-42.75-7.09,111.53,111.53,0,0,1-38.64-16.68q-17.45-11.88-27.87-35t-10.43-62.39q0-68.57,37.1-106t104.81-37.48a183.81,183.81,0,0,1,69.25,13.71,201.32,201.32,0,0,1,61.05,38.4l-28.39,45.25a214,214,0,0,0-52.49-30.4q-27.18-10.73-51.47-10.74-44.8,0-69.42,22.4t-24.62,63.07q0,31.09,15.22,44.57t39.84,17.6q24.61,4.11,53.69,6.4a390.52,390.52,0,0,1,45,6.4,116,116,0,0,1,41.89,17.36q19.14,12.81,30.78,38.63t11.62,70.16q0,69-39.84,107.18T13084.46,2547.79Z" fill="#fff"/><path d="M13392.74,2123.16v-56.67h160v56.67Zm119.69,420.06q-43.78,0-63.44-32.45t-19.66-93.25V1928.45h49.24v490q0,30.17,10.26,46.85t30.44,16.68h33.51v61.25Z" fill="#fff"/><path d="M13743.08,2540.93V2066.49h49.25v474.44Zm209-389.43a70.61,70.61,0,0,0-27.53-22.85q-16.59-7.77-38.47-7.77-44.81,0-69.25,32t-24.45,87.76l-7.18-91.41q19.48-42,51-65.82t69.42-23.77q24.27,0,43.94,9.37a98.1,98.1,0,0,1,34.37,27.65Z" fill="#fff"/><path d="M14146.77,1942.16v-65.82H14196v65.82Zm0,598.77V2066.49H14196v474.44Z" fill="#fff"/><path d="M14552.17,2547.79q-74.2,0-114.9-55.53t-40.69-157v-53.48q0-106,39.15-164.09t110.29-58q67,0,103.79,57.14t36.76,161.34v54.4h-256.48v-59.42h210.66v-4.57q0-70.39-24.8-109t-69.93-38.62q-49.59,0-76.6,40.68t-27,115.18v60.34q0,71.3,28.73,110.38t81,39.08q24.63,0,48.74-13.71t42.91-38.85l33.52,43q-26,33.84-58.82,52.34T14552.17,2547.79Z" fill="#fff"/><path d="M14999,2547.79a198.94,198.94,0,0,1-81.91-17.14,191.92,191.92,0,0,1-65.83-47.76l28.39-46.17q29.05,26.06,60.18,40.45t59.17,14.4q50.94,0,78.82-23.31t27.87-65.82q0-35.66-16.76-50.74t-43.94-19.65q-27.18-4.56-58-7.77a369.25,369.25,0,0,1-42.75-7.09,111.53,111.53,0,0,1-38.64-16.68q-17.45-11.88-27.87-35t-10.43-62.39q0-68.57,37.1-106t104.81-37.48a183.81,183.81,0,0,1,69.25,13.71,201.32,201.32,0,0,1,61.05,38.4l-28.39,45.25a214,214,0,0,0-52.49-30.4q-27.18-10.73-51.47-10.74-44.8,0-69.42,22.4t-24.62,63.07q0,31.09,15.22,44.57t39.84,17.6q24.61,4.11,53.69,6.4a390.52,390.52,0,0,1,45,6.4,116,116,0,0,1,41.89,17.36q19.14,12.81,30.78,38.63t11.62,70.16q0,69-39.84,107.18T14999,2547.79Z" fill="#fff"/></svg>